HIERARCHY
ROOT pelvis
{
  OFFSET 0 100 0
  CHANNELS 6 Xposition Yposition Zposition Zrotation Xrotation Yrotation
  JOINT pelvis_right_femur
  {
    OFFSET -10.78128 -3.44521 -0.5502486
    CHANNELS 3 Zrotation Xrotation Yrotation
    JOINT right_femur_tibia
    {
      OFFSET -0.8047443 -44.0398 -0.1307829
      CHANNELS 3 Zrotation Xrotation Yrotation
      JOINT right_tibia_foot
      {
        OFFSET 3.006224 -47.83518 -5
        CHANNELS 3 Zrotation Xrotation Yrotation
        End Site
        {
          OFFSET 0 -5 15
        }
      }
    }
  }
  JOINT pelvis_left_femur
  {
    OFFSET 10.78128 -3.44521 -0.5502486
    CHANNELS 3 Zrotation Xrotation Yrotation
    JOINT left_femur_tibia
    {
      OFFSET 0.8047443 -44.0398 -0.1307829
      CHANNELS 3 Zrotation Xrotation Yrotation
      JOINT left_tibia_foot
      {
        OFFSET -4.370144 -48.10324 -4.275266
        CHANNELS 3 Zrotation Xrotation Yrotation
        End Site
        {
          OFFSET 0 -5 15
        }
      }
    }
  }
  JOINT pelvis_spine1
  {
    OFFSET 0 6.468898 -3.129235
    CHANNELS 3 Zrotation Xrotation Yrotation
    JOINT spine1
    {
      OFFSET 0 23.15396 4.99043
      CHANNELS 3 Zrotation Xrotation Yrotation
      JOINT spine2
      {
        OFFSET 0 20.79997 -5.064912
        CHANNELS 3 Zrotation Xrotation Yrotation
        JOINT neck
        {
          OFFSET 0 14.38658 9.616178
          CHANNELS 3 Zrotation Xrotation Yrotation
          End Site
          {
            OFFSET 0 20 0
          }
        }
      }
      JOINT right_manubrium
      {
        OFFSET -5.722621 16.35077 3.967754
        CHANNELS 3 Zrotation Xrotation Yrotation
        JOINT right_clavicle
        {
          OFFSET -13.16364 1.694482 -4.693211
          CHANNELS 3 Zrotation Xrotation Yrotation
          JOINT right_humerus
          {
            OFFSET -28.5034 -0.3100689 -2.792744
            CHANNELS 3 Zrotation Xrotation Yrotation
            JOINT right_radius
            {
              OFFSET -25.15693 0.02248979 -1.271978
              CHANNELS 3 Zrotation Xrotation Yrotation
              End Site
              {
                OFFSET -15 0 0
              }
            }
          }
        }
      }
      JOINT left_manubrium
      {
        OFFSET 5.722621 16.35077 3.967754
        CHANNELS 3 Zrotation Xrotation Yrotation
        JOINT left_clavicle
        {
          OFFSET 13.16364 1.694482 -4.693211
          CHANNELS 3 Zrotation Xrotation Yrotation
          JOINT left_humerus
          {
            OFFSET 29.39168 -1.063119 -2.237045
            CHANNELS 3 Zrotation Xrotation Yrotation
            JOINT left_radius
            {
              OFFSET 24.59957 -0.9528479 0.9047498
              CHANNELS 3 Zrotation Xrotation Yrotation
              End Site
              {
                OFFSET 15 -0 -0
              }
            }
          }
        }
      }
    }
  }
}
MOTION
Frames: 17
Frame Time: 0.0416666666667
1148.943 101.223 2933.069 3.917474 -2.996495 39.83863 0.3812646 -26.23413 0.8743847 -0 15.99293 -0 1.298901 -0.8111132 -7.762196 -5.148504 15.08957 -7.836307 -0 13.76083 -0 -4.598018 -19.99121 12.76425 1.586159 -3.607462 7.967365 -0.1747904 16.23481 -5.76185 1.861287 18.93461 0.7058912 -1.426358 -19.33918 4.625175 -4.662745 -32.41554 11.37319 90.77372 15.94838 -8.017124 -0 0 29.79747 -23.60905 18.08607 18.13428 0.6016685 -20.37968 -7.122233 -94.22616 13.06565 39.03896 0 0 -12.71934 1.77066 13.60246 12.72267
1153.084 99.94721 2938.251 3.457898 -2.313401 40.2921 0.8774409 -27.40571 0.9812928 -0 10.8124 -0 1.674806 -0.2279368 -7.791377 -5.123832 17.27891 -7.61145 -0 16.89378 -0 -5.62077 -19.82564 11.90296 1.586668 -3.608745 7.969461 -0.1755839 16.23427 -5.760431 1.861121 18.93178 0.7042898 -1.426912 -19.3362 4.623675 -4.66104 -32.42015 11.37187 90.76633 15.94821 -8.008217 -0 0 29.81202 -23.6101 18.09307 18.13918 0.6018249 -20.37625 -7.120861 -94.23082 13.06422 39.04992 0 0 -12.71436 1.76688 13.60116 12.72857
1157.399 98.97355 2943.831 3.071322 -2.08636 40.67156 1.839963 -26.96116 1.800122 -0 9.048762 -0 1.880893 0.1744604 -7.919449 -4.870273 18.687 -7.432545 -0 21.89251 -0 -6.847242 -18.44409 11.3674 1.586611 -3.610191 7.971505 -0.1761399 16.23236 -5.758322 1.860788 18.92901 0.7031075 -1.427398 -19.33413 4.622509 -4.659387 -32.42581 11.36983 90.75627 15.94662 -7.995653 -0 0 29.8302 -23.61188 18.09984 18.14587 0.6025907 -20.37075 -7.118184 -94.23862 13.06424 39.06417 0 0 -12.70356 1.762579 13.59973 12.73471
1161.817 98.51431 2949.716 2.873012 -2.436039 40.90417 3.157855 -24.83418 3.174962 -0 10.25921 -0 1.800502 -0.08286241 -8.179959 -4.374799 18.97696 -7.291789 -0 28.65638 -0 -8.16748 -16.03206 11.33122 1.585988 -3.611837 7.973469 -0.1763966 16.22904 -5.755576 1.860277 18.92632 0.7023492 -1.427824 -19.33304 4.621687 -4.657815 -32.43259 11.36709 90.74353 15.94348 -7.979408 -0 0 29.85207 -23.61441 18.10642 18.15436 0.603962 -20.36313 -7.114149 -94.2496 13.0657 39.08175 0 0 -12.68669 1.757864 13.59839 12.74078
1166.229 98.68549 2955.736 2.983329 -3.319924 40.88473 4.522591 -21.16515 4.695322 -0 13.34263 -0 1.351874 -1.178349 -8.48126 -3.760486 17.73824 -7.160831 -0 36.8157 -0 -9.262188 -13.08631 11.97057 1.584813 -3.613582 7.975195 -0.1763048 16.22447 -5.752374 1.859612 18.92391 0.7020969 -1.428154 -19.33308 4.621293 -4.656452 -32.44004 11.36383 90.72888 15.93892 -7.960477 -0 0 29.87623 -23.61756 18.11233 18.16412 0.605871 -20.35383 -7.108965 -94.26315 13.06858 39.10153 0 0 -12.6646 1.753086 13.59729 12.74624
1170.521 99.45953 2961.667 3.486871 -4.526663 40.54857 5.520288 -16.34571 5.846024 -0 16.73574 -0 0.5317402 -2.979522 -8.583808 -3.236782 14.60132 -7.065863 -0 45.51292 -0 -9.791287 -10.30879 13.27831 1.583132 -3.615184 7.976431 -0.1758566 16.21904 -5.749002 1.858861 18.92216 0.7024859 -1.428318 -19.33443 4.621458 -4.6555 -32.44728 11.36034 90.71392 15.93335 -7.940844 -0 0 29.8999 -23.62102 18.11661 18.17411 0.6081796 -20.34377 -7.103129 -94.27795 13.07278 39.12131 0 0 -12.63937 1.748784 13.59646 12.7505
1174.611 100.6462 2967.304 4.335358 -5.673872 39.94406 5.809729 -10.92075 6.27087 -0 18.80671 -0 -0.4417612 -5.13786 -8.175277 -2.970229 9.449402 -7.080081 -0 53.21609 -0 -9.70928 -8.332931 14.89367 1.581039 -3.616352 7.97693 -0.1750975 16.21326 -5.745793 1.858113 18.92143 0.7036215 -1.428242 -19.33713 4.622288 -4.655149 -32.45323 11.357 90.70053 15.92736 -7.922932 -0 0 29.91976 -23.62438 18.11824 18.18307 0.610691 -20.33416 -7.097306 -94.29231 13.07806 39.13848 0 0 -12.61384 1.745511 13.5958 12.75311
1178.49 101.9374 2972.55 5.272503 -6.34177 39.21528 5.378948 -5.411654 6.064502 -0 18.58728 -0 -1.05102 -7.224188 -7.149437 -2.894705 2.689121 -7.121093 -0 57.95371 -0 -9.347767 -7.378568 16.2718 1.578695 -3.616877 7.976572 -0.1741162 16.2077 -5.743052 1.857457 18.92193 0.7054792 -1.427896 -19.34103 4.623772 -4.655492 -32.45708 11.35412 90.69032 15.92161 -7.908808 -0 0 29.93324 -23.62728 18.11669 18.18995 0.6131762 -20.32605 -7.092136 -94.30468 13.08403 39.15092 0 0 -12.59079 1.743649 13.59523 12.75384
1182.21 102.9953 2977.459 5.941026 -6.425146 38.47882 4.688998 -0.2231649 5.721037 -0 16.44727 -0 -0.8672154 -8.912526 -5.867336 -2.605342 -4.67423 -6.805901 -0 58.12022 -0 -9.008408 -7.17872 17.23776 1.576314 -3.616748 7.975443 -0.1730176 16.20283 -5.740976 1.856943 18.92353 0.7078546 -1.427327 -19.34572 4.625744 -4.656451 -32.4586 11.35193 90.68395 15.91658 -7.899442 -0 0 29.93955 -23.62948 18.11227 18.19429 0.6154237 -20.32007 -7.088027 -94.31413 13.09013 39.15785 0 0 -12.57206 1.743253 13.59475 12.75279
1185.834 103.5299 2982.157 6.137919 -6.294275 37.75042 4.34686 4.415104 5.527242 -0 13.80248 -0 -0.203881 -10.26681 -4.874145 -1.653992 -11.43797 -5.820536 -0 53.31315 -0 -8.622864 -7.349893 18.17925 1.574096 -3.616145 7.9738 -0.1718878 16.19887 -5.739601 1.856574 18.92585 0.7104351 -1.426638 -19.35066 4.627935 -4.657818 -32.45826 11.35046 90.68102 15.91246 -7.894453 -0 0 29.93993 -23.631 18.10604 18.19633 0.6173041 -20.31615 -7.085034 -94.3206 13.09585 39.16004 0 0 -12.55798 1.744058 13.5945 12.75032
1189.428 103.3908 2986.74 5.873915 -6.280424 36.99115 4.47665 8.523747 5.238705 -0 11.93642 -0 0.1124574 -11.75531 -4.224852 -0.1508353 -16.87996 -4.494939 -0 44.69071 -0 -8.094015 -7.675476 19.3456 1.572141 -3.615299 7.971904 -0.1707653 16.19577 -5.738836 1.856319 18.9285 0.712972 -1.425925 -19.35549 4.630127 -4.659384 -32.45676 11.3496 90.68059 15.90916 -7.892718 -0 0 29.93637 -23.63195 18.09907 18.19671 0.6188002 -20.31385 -7.082955 -94.32466 13.10092 39.15894 0 0 -12.54779 1.745695 13.59459 12.74679
1193.094 102.6674 2991.283 5.201808 -6.149231 36.18135 4.619307 12.12469 4.660788 -0 11.29818 -0 -0.1535586 -13.58788 -3.463981 1.223846 -21.00194 -3.528099 -0 34.70116 -0 -7.521834 -7.926676 20.3489 1.570447 -3.614297 7.969843 -0.1696516 16.19343 -5.738601 1.856157 18.93135 0.7154077 -1.425217 -19.36013 4.632265 -4.661079 -32.45438 11.34926 90.68213 15.90655 -7.893613 -0 0 29.9298 -23.63246 18.09171 18.19576 0.6199474 -20.31288 -7.081638 -94.32672 13.10533 39.15525 0 0 -12.54085 1.747996 13.59505 12.74239
1196.971 101.6293 2995.894 4.271536 -5.525353 35.36992 4.302988 15.02753 4.036299 -0 11.84792 -0 -0.4435942 -15.15822 -2.33168 1.892648 -24.00085 -3.215617 -0 26.0028 -0 -6.919079 -7.889519 20.75296 1.569026 -3.613053 7.967562 -0.1685748 16.19197 -5.738948 1.856111 18.93451 0.7177798 -1.424489 -19.36459 4.634383 -4.662944 -32.45086 11.34951 90.68611 15.90479 -7.897696 -0 0 29.91941 -23.63241 18.08367 18.19317 0.6207124 -20.31351 -7.081245 -94.32639 13.10907 39.14835 0 0 -12.53787 1.751057 13.59576 12.7371
1201.179 100.5488 3000.688 3.483901 -4.535674 34.6508 3.411518 17.13054 3.699558 -0 13.76435 -0 -0.2894433 -15.37948 -1.095763 1.675565 -25.82443 -3.480854 -0 20.29855 -0 -6.220244 -7.664395 20.62699 1.567993 -3.611479 7.965067 -0.1676313 16.19172 -5.740002 1.856231 18.93797 0.720017 -1.423739 -19.36865 4.636418 -4.664966 -32.44582 11.35049 90.69324 15.9043 -7.905934 -0 0 29.9041 -23.6316 18.07487 18.18848 0.6209658 -20.31632 -7.082134 -94.32286 13.11184 39.13732 0 0 -12.54045 1.754952 13.59658 12.7311
1205.774 99.64642 3005.738 3.248379 -3.634295 34.10846 2.11642 18.43477 3.848642 -0 17.71608 -0 0.3283759 -13.3656 -0.2697496 0.6672725 -26.27203 -4.167197 -0 18.00252 -0 -5.43269 -7.539735 20.24816 1.567514 -3.609628 7.96252 -0.1669359 16.19295 -5.741813 1.856543 18.94152 0.721912 -1.423022 -19.37188 4.638188 -4.667009 -32.43937 11.35228 90.70358 15.90539 -7.918525 -0 0 29.88409 -23.62995 18.06586 18.18163 0.6205854 -20.32152 -7.084507 -94.31575 13.1132 39.12217 0 0 -12.54961 1.75952 13.59743 12.72476
1210.723 99.1462 3011.024 3.647442 -3.138179 33.83617 0.7704236 18.65746 4.463805 -0 24.41978 -0 1.237151 -8.998678 -0.2366604 -0.8553672 -25.09016 -5.050551 -0 18.45807 -0 -4.635323 -7.708139 19.70697 1.567707 -3.607672 7.960166 -0.1665657 16.19571 -5.744314 1.857034 18.94482 0.7232305 -1.422417 -19.37389 4.639483 -4.668879 -32.432 11.3548 90.71649 15.9081 -7.934715 -0 0 29.86087 -23.62752 18.05753 18.17306 0.6195304 -20.32887 -7.088284 -94.30536 13.11285 39.10396 0 0 -12.56512 1.764422 13.59829 12.71858
1215.878 99.25552 3016.419 4.407479 -3.106378 33.95061 -0.190781 17.25784 5.167162 -0 33.65302 -0 2.187533 -3.403152 -1.037602 -2.52318 -22.09962 -5.95025 -0 20.26722 -0 -4.011963 -8.263078 18.99945 1.568614 -3.60581 7.958226 -0.1665504 16.19986 -5.747359 1.857667 18.94754 0.7237982 -1.421996 -19.37441 4.640144 -4.6704 -32.42436 11.35789 90.73096 15.91226 -7.953284 -0 0 29.83639 -23.6245 18.05078 18.16341 0.617837 -20.33784 -7.093202 -94.29241 13.11067 39.08416 0 0 -12.58594 1.769285 13.59923 12.71297
